# xmcd CD database file
#
# Track frame offsets:
#	150
#	13301
#	27099
#	40960
#	54664
#	68015
#	81590
#	95342
#	109105
#	123192
#	137492
#	151049
#	164324
#	176603
#	191832
#	205536
#	220110
#	233448
#	247678
#	259985
#	274451
#	286971
#	300380
#	314190
#
# Disc length: 4371 seconds
#
# Revision: 0
# Processed by: cddbd v1.5.1PL0 Copyright (c) Steve Scherf et al.
# Submitted via: CDex 1.51
#
DISCID=4d111118
DTITLE=Thelonious Monk - Genius Of Modern Music Disc One
DYEAR=1900
DGENRE=Jazz
TTITLE0=Humph
TTITLE1=Evonce [alternate take]
TTITLE2=Evonce
TTITLE3=Suburban Eyes
TTITLE4=Suburban Eyes [alternate take]
TTITLE5=Thelonious
TTITLE6=Nice Work If You Can Get It [alternate take]
TTITLE7=Nice Work If You Can Get It
TTITLE8=Ruby My Dear [alternate take]
TTITLE9=Ruby My Dear
TTITLE10=Well You Needn't
TTITLE11=Well You Needn't [alternate take]
TTITLE12=April In Paris [alternate take]
TTITLE13=April In Paris
TTITLE14=Off Minor
TTITLE15=Introspection
TTITLE16=In walked Bud
TTITLE17=Monk's Mood
TTITLE18=Who Knows?
TTITLE19='Round Midnight
TTITLE20=Who Knows? [alternate take]
TTITLE21=All The Things You Are
TTITLE22=I Should Care [alternate take]
TTITLE23=I Should Care
EXTD=
EXTT0=
EXTT1=
EXTT2=
EXTT3=
EXTT4=
EXTT5=
EXTT6=
EXTT7=
EXTT8=
EXTT9=
EXTT10=
EXTT11=
EXTT12=
EXTT13=
EXTT14=
EXTT15=
EXTT16=
EXTT17=
EXTT18=
EXTT19=
EXTT20=
EXTT21=
EXTT22=
EXTT23=
PLAYORDER=
